<svg width="21" height="45" viewBox="0 0 21 45" fill="none" xmlns="http://www.w3.org/2000/svg">
<path d="M10.5373 33.8458C9.12848 33.8458 7.76162 33.5853 6.47465 33.0717C5.2318 32.5756 4.11568 31.8656 3.15731 30.9612C2.19894 30.0569 1.44646 29.0037 0.920794 27.8309C0.376445 26.6165 0.100433 25.3267 0.100433 23.9973V9.94976C0.100433 8.62039 0.376445 7.33059 0.920774 6.1162C1.44646 4.94341 2.19892 3.89021 3.15731 2.98587C4.11568 2.08154 5.2318 1.37147 6.47465 0.875442C7.7616 0.3618 9.12846 0.101349 10.5372 0.101349C11.946 0.101349 13.3129 0.3618 14.5998 0.875442C15.8427 1.37149 16.9588 2.08154 17.9172 2.98587C18.8756 3.89021 19.628 4.94341 20.1537 6.1162C20.6981 7.33059 20.9741 8.62039 20.9741 9.94976V23.9973C20.9741 25.3267 20.6981 26.6165 20.1537 27.8309C19.628 29.0037 18.8756 30.0569 17.9172 30.9612C16.9588 31.8656 15.8427 32.5756 14.5999 33.0717C13.3129 33.5853 11.9461 33.8458 10.5373 33.8458ZM10.5373 0.859576C5.22543 0.859576 0.90396 4.93742 0.90396 9.94976V23.9973C0.90396 29.0097 5.22543 33.0875 10.5372 33.0875H10.5373C15.8491 33.0875 20.1705 29.0097 20.1705 23.9973V9.94976C20.1705 4.93742 15.8491 0.859576 10.5373 0.859576Z" fill="white"/>
<path d="M10.4068 13.6757C9.21336 13.6757 8.2424 12.7595 8.2424 11.6334V7.45422C8.2424 6.32805 9.21336 5.41183 10.4068 5.41183C11.6003 5.41183 12.5712 6.32803 12.5712 7.45422V11.6334C12.5712 12.7595 11.6003 13.6757 10.4068 13.6757ZM10.4068 6.17006C9.65643 6.17006 9.04593 6.74614 9.04593 7.45422V11.6334C9.04593 12.3414 9.65643 12.9175 10.4068 12.9175C11.1572 12.9175 11.7677 12.3414 11.7677 11.6334V7.45422C11.7677 6.74614 11.1572 6.17006 10.4068 6.17006Z" fill="white"/>
<path d="M10.4068 9.42746C10.1295 9.42746 9.90463 9.21529 9.90463 8.95357V7.37077C9.90463 7.10905 10.1295 6.89688 10.4068 6.89688C10.6842 6.89688 10.909 7.10905 10.909 7.37077V8.95357C10.909 9.21529 10.6842 9.42746 10.4068 9.42746Z" fill="white"/>
<path d="M10.4637 44.2931C10.3617 44.2931 10.2598 44.2568 10.1815 44.1838L6.13037 40.4117C5.97243 40.2646 5.97075 40.0246 6.12659 39.8756C6.28243 39.7266 6.53679 39.725 6.69476 39.872L10.7459 43.6442C10.9038 43.7913 10.9055 44.0313 10.7496 44.1803C10.671 44.2555 10.5674 44.2931 10.4637 44.2931Z" fill="white"/>
<path d="M10.4637 44.2931C10.3599 44.2931 10.2563 44.2554 10.1777 44.1802C10.0218 44.0312 10.0236 43.7911 10.1815 43.6441L10.2263 43.6024L14.2327 39.8719C14.3906 39.7249 14.6449 39.7265 14.8008 39.8755C14.9567 40.0245 14.955 40.2646 14.7971 40.4116L10.7458 44.1839C10.6675 44.2567 10.5656 44.2931 10.4637 44.2931Z" fill="white"/>
<path d="M10.5106 41.5445C10.8156 41.5445 11.063 41.3112 11.063 41.0233C11.063 40.7354 10.8156 40.502 10.5106 40.502C10.2055 40.502 9.95813 40.7354 9.95813 41.0233C9.95813 41.3112 10.2055 41.5445 10.5106 41.5445Z" fill="white"/>
<path d="M10.5106 39.4058C10.8156 39.4058 11.063 39.1724 11.063 38.8845C11.063 38.5966 10.8156 38.3632 10.5106 38.3632C10.2055 38.3632 9.95813 38.5966 9.95813 38.8845C9.95813 39.1724 10.2055 39.4058 10.5106 39.4058Z" fill="white"/>
<path d="M10.5106 37.2669C10.8156 37.2669 11.063 37.0335 11.063 36.7457C11.063 36.4578 10.8156 36.2245 10.5106 36.2245C10.2055 36.2245 9.95813 36.4578 9.95813 36.7457C9.95813 37.0335 10.2055 37.2669 10.5106 37.2669Z" fill="white"/>
</svg>
